<svg width="108" height="51" viewBox="0 0 108 51" fill="none" xmlns="http://www.w3.org/2000/svg">
<path d="M38.2646 9.30101L43.3 41.286C43.3 41.286 43.3 47.536 50.4333 47.536H57.5667C64.7 47.536 64.7 41.286 64.7 41.286L69.7354 9.30101C69.7354 0.661011 54 0.661011 54 0.661011C54 0.661011 38.2425 0.661011 38.2646 9.30101ZM25.4667 13.161C14.7667 13.161 14.7667 19.411 14.7667 19.411L21.9 44.411H32.6C37.9857 44.411 38.2646 39.6316 38.2646 39.6316L32.6 13.161H25.4667ZM11.2 28.786C11.2 28.786 6.79445 28.6023 3.64723 31.3598C0.5 34.1166 0.5 36.8741 0.5 36.8741V50.661H6.79445C14.7667 50.661 14.7667 44.411 14.7667 44.411L11.2 28.786Z" fill="#C24611" fill-opacity="0.9"/>
<path d="M82.5333 13.161C93.2333 13.161 93.2333 19.411 93.2333 19.411L86.1 44.411H75.4C70.0143 44.411 69.7354 39.6316 69.7354 39.6316L75.4 13.161H82.5333ZM96.8 28.786C96.8 28.786 101.206 28.6023 104.353 31.3598C107.5 34.1166 107.5 36.8741 107.5 36.8741V50.661H101.206C93.2333 50.661 93.2333 44.411 93.2333 44.411L96.8 28.786Z" fill="#C24611" fill-opacity="0.9"/>
</svg>
