<svg width="55" height="55" viewBox="0 0 55 55" fill="none" xmlns="http://www.w3.org/2000/svg">
<path d="M41.2664 0C43.1501 0 44.9243 0.36141 46.589 1.08423C48.2537 1.80705 49.7103 2.79271 50.9588 4.04122C52.2073 5.28973 53.193 6.74632 53.9158 8.41099C54.6386 10.0757 55 11.8499 55 13.7336V41.2007C55 43.0844 54.6386 44.8696 53.9158 46.5562C53.193 48.2427 52.2073 49.7103 50.9588 50.9588C49.7103 52.2073 48.2537 53.193 46.589 53.9158C44.9243 54.6386 43.1501 55 41.2664 55H13.7336C11.8499 55 10.0757 54.6386 8.41099 53.9158C6.74632 53.193 5.28973 52.2073 4.04122 50.9588C2.79271 49.7103 1.80705 48.2427 1.08423 46.5562C0.36141 44.8696 0 43.0844 0 41.2007V13.7336C0 11.8499 0.36141 10.0757 1.08423 8.41099C1.80705 6.74632 2.79271 5.28973 4.04122 4.04122C5.28973 2.79271 6.74632 1.80705 8.41099 1.08423C10.0757 0.36141 11.8499 0 13.7336 0H41.2664ZM37.7838 12.0251H32.0012C30.8622 12.0251 29.8108 12.2222 28.8471 12.6165C27.8833 13.0108 27.051 13.5255 26.3501 14.1607C25.6491 14.7959 25.0906 15.5297 24.6744 16.362C24.2583 17.1943 24.0502 18.0267 24.0502 18.859V22.3417H18.9247V29.1756H24.0502V42.9749H30.9498V29.1756H36.0753V22.3417H30.9498V20.6332C30.9498 20.0637 31.1579 19.6256 31.5741 19.319C31.9902 19.0123 32.3517 18.859 32.6583 18.859H37.7838V12.0251Z" fill="url(#paint0_linear_35_118)" fill-opacity="0.6"/>
<defs>
<linearGradient id="paint0_linear_35_118" x1="27.5" y1="0" x2="27.5" y2="55" gradientUnits="userSpaceOnUse">
<stop stop-color="#AB3909" stop-opacity="0.79"/>
<stop offset="1" stop-color="#C24611"/>
</linearGradient>
</defs>
</svg>
