<svg width="57" height="55" viewBox="0 0 57 55" fill="none" xmlns="http://www.w3.org/2000/svg">
<path d="M42.5167 0C44.4347 0 46.2411 0.36141 47.9361 1.08423C49.631 1.80705 51.1141 2.79271 52.3853 4.04122C53.6565 5.28973 54.6601 6.74632 55.3961 8.41099C56.132 10.0757 56.5 11.8499 56.5 13.7336V41.2007C56.5 43.0844 56.132 44.8696 55.3961 46.5562C54.6601 48.2427 53.6565 49.7103 52.3853 50.9588C51.1141 52.2073 49.631 53.193 47.9361 53.9158C46.2411 54.6386 44.4347 55 42.5167 55H14.4833C12.5653 55 10.7589 54.6386 9.06392 53.9158C7.36898 53.193 5.8859 52.2073 4.6147 50.9588C3.34349 49.7103 2.3399 48.2427 1.60394 46.5562C0.867981 44.8696 0.5 43.0844 0.5 41.2007V13.7336C0.5 11.8499 0.867981 10.0757 1.60394 8.41099C2.3399 6.74632 3.34349 5.28973 4.6147 4.04122C5.8859 2.79271 7.36898 1.80705 9.06392 1.08423C10.7589 0.36141 12.5653 0 14.4833 0H42.5167ZM19.7688 20.6332H12.7437V42.9749H19.7688V20.6332ZM16.2897 18.859C17.2264 18.859 18.0404 18.5305 18.7318 17.8734C19.4231 17.2162 19.7688 16.4058 19.7688 15.4421C19.7688 14.4783 19.4231 13.6679 18.7318 13.0108C18.0404 12.3536 17.2264 12.0251 16.2897 12.0251C15.3084 12.0251 14.4721 12.3536 13.7808 13.0108C13.0894 13.6679 12.7437 14.4783 12.7437 15.4421C12.7437 16.4058 13.0894 17.2162 13.7808 17.8734C14.4721 18.5305 15.3084 18.859 16.2897 18.859ZM44.2563 30.0299C44.2563 28.4528 43.8102 26.9086 42.9182 25.3973C42.0261 23.8859 40.8664 22.736 39.4391 21.9474C38.1456 21.2465 36.6402 20.8742 34.9229 20.8303C33.2057 20.7865 31.6557 21.0713 30.273 21.6846V20.6332H23.2479V42.9749H30.273V29.307L33.1499 27.9271C33.5068 27.7519 33.9974 27.6643 34.6219 27.6643C35.2463 27.6643 35.7147 27.7738 36.0269 27.9928C36.2945 28.1243 36.5621 28.409 36.8298 28.8471C37.0974 29.2851 37.2312 29.6794 37.2312 30.0299V42.9749H44.2563V30.0299Z" fill="url(#paint0_linear_35_114)" fill-opacity="0.6"/>
<defs>
<linearGradient id="paint0_linear_35_114" x1="28.5" y1="0" x2="28.5" y2="55" gradientUnits="userSpaceOnUse">
<stop stop-color="#AB3909" stop-opacity="0.79"/>
<stop offset="1" stop-color="#C24611"/>
</linearGradient>
</defs>
</svg>
