<svg width="55" height="55" viewBox="0 0 55 55" fill="none" xmlns="http://www.w3.org/2000/svg">
<path d="M41.0161 0C42.8656 0 44.6075 0.36141 46.2419 1.08423C47.8763 1.80705 49.3065 2.79271 50.5323 4.04122C51.7581 5.28973 52.7258 6.74632 53.4355 8.41099C54.1452 10.0757 54.5 11.8499 54.5 13.7336V41.2007C54.5 43.0844 54.1452 44.8696 53.4355 46.5562C52.7258 48.2427 51.7581 49.7103 50.5323 50.9588C49.3065 52.2073 47.8763 53.193 46.2419 53.9158C44.6075 54.6386 42.8656 55 41.0161 55H13.9839C12.1344 55 10.3925 54.6386 8.75806 53.9158C7.12366 53.193 5.69355 52.2073 4.46774 50.9588C3.24194 49.7103 2.27419 48.2427 1.56452 46.5562C0.854839 44.8696 0.5 43.0844 0.5 41.2007V13.7336C0.5 11.8499 0.854839 10.0757 1.56452 8.41099C2.27419 6.74632 3.24194 5.28973 4.46774 4.04122C5.69355 2.79271 7.12366 1.80705 8.75806 1.08423C10.3925 0.36141 12.1344 0 13.9839 0H41.0161ZM23.4032 24.9701C23.4032 25.9777 23.7258 26.7662 24.371 27.3357C24.9731 27.9052 25.8333 28.19 26.9516 28.19C28.1129 28.19 28.9946 27.9052 29.5968 27.3357C30.2419 26.81 30.5645 26.0215 30.5645 24.9701V18.9247C30.5645 18.0924 30.2419 17.3696 29.5968 16.7563C28.9946 16.1868 28.1559 15.902 27.0806 15.902C25.9624 15.902 25.0806 16.1649 24.4355 16.6906C23.7473 17.2162 23.4032 17.9391 23.4032 18.859V24.9701ZM19.9194 28.19H12.3065V30.2927H14.8871V42.6464H17.3387V30.2927H19.9194V28.19ZM19.9839 21.356L23.2097 12.0251H20.371L18.6935 18.399H18.5L16.6935 12.0251H13.9194L17.2097 21.6189V27.9271H19.9839V21.356ZM27.1452 32.0012H24.9516V40.0836C24.8656 40.2151 24.7581 40.3246 24.629 40.4122L24.2419 40.675C23.9839 40.8065 23.7903 40.8722 23.6613 40.8722C23.4462 40.8722 23.2957 40.8284 23.2097 40.7407C23.1237 40.6531 23.0806 40.456 23.0806 40.1493V32.0012H20.8871V40.9379C20.8871 41.5512 21.0161 42.0112 21.2742 42.3178C21.5323 42.6683 21.8978 42.8435 22.371 42.8435C22.7581 42.8435 23.1882 42.7121 23.6613 42.4492C24.0484 42.274 24.4785 41.9454 24.9516 41.4636V42.6464H27.1452V32.0012ZM35.0806 34.5639C35.0806 33.6878 34.8871 33.0088 34.5 32.5269C34.1989 32.0888 33.6828 31.8698 32.9516 31.8698C32.5645 31.8698 32.2204 31.9574 31.9194 32.1326C31.5753 32.264 31.2742 32.505 31.0161 32.8554V28.19H28.7581V42.6464H31.0161V41.8578C31.1452 42.0331 31.2849 42.1754 31.4355 42.2849C31.586 42.3945 31.7473 42.493 31.9194 42.5806C32.2204 42.7121 32.6075 42.7778 33.0806 42.7778C33.7258 42.7778 34.2204 42.5806 34.5645 42.1864C34.9086 41.7483 35.0806 41.1788 35.0806 40.4779V34.5639ZM34.3064 28.0585C34.8226 28.0585 35.2957 27.949 35.7258 27.73C36.1559 27.511 36.629 27.1386 37.1452 26.6129V27.9271H39.5968V16.1649H37.1452V25.1016C36.9731 25.3206 36.7151 25.5396 36.371 25.7587C36.1129 25.8901 35.8979 25.9558 35.7258 25.9558C35.4247 25.9558 35.2527 25.8901 35.2097 25.7587C35.0806 25.6272 35.0161 25.4301 35.0161 25.1673V16.1649H32.5645V26.0215C32.5645 26.7224 32.7151 27.2262 33.0161 27.5329C33.2312 27.8833 33.6613 28.0585 34.3064 28.0585ZM42.6935 34.8925C42.6935 33.8411 42.414 33.0526 41.8548 32.5269C41.3387 32.0012 40.5645 31.7384 39.5323 31.7384C38.543 31.7384 37.7473 32.0231 37.1452 32.5926C36.543 33.2059 36.2419 33.9725 36.2419 34.8925V39.6237C36.2419 40.675 36.5215 41.4855 37.0806 42.055C37.6828 42.6683 38.457 42.9749 39.4032 42.9749C40.4785 42.9749 41.2957 42.6902 41.8548 42.1207C42.414 41.595 42.6935 40.7626 42.6935 39.6237V39.098H40.4355V39.5579C40.4355 40.2151 40.371 40.6312 40.2419 40.8064C40.0699 40.9817 39.8118 41.0693 39.4677 41.0693C39.0376 41.0693 38.7796 40.9598 38.6935 40.7407C38.5645 40.5655 38.5 40.1712 38.5 39.5579V37.5866H42.6935V34.8925ZM39.4677 33.5783C39.8118 33.5783 40.0484 33.6878 40.1774 33.9068C40.3495 34.082 40.4355 34.3887 40.4355 34.8268V35.9438H38.5V34.8268C38.5 34.4325 38.5645 34.1258 38.6935 33.9068C38.9086 33.6878 39.1667 33.5783 39.4677 33.5783ZM31.9194 33.5783C32.2204 33.5783 32.4355 33.6659 32.5645 33.8411C32.7366 34.0163 32.8226 34.2792 32.8226 34.6296V40.1493C32.8226 40.4998 32.7581 40.7407 32.629 40.8722C32.5 41.0474 32.3065 41.135 32.0484 41.135C31.8763 41.135 31.7043 41.0912 31.5323 41.0036C31.3172 40.916 31.1452 40.7845 31.0161 40.6093V33.9725C31.1882 33.7973 31.3387 33.6878 31.4677 33.644C31.5538 33.6002 31.7043 33.5783 31.9194 33.5783ZM26.9516 26.1529C26.6075 26.1529 26.371 26.0653 26.2419 25.8901C26.0269 25.7587 25.9194 25.5177 25.9194 25.1673V18.7933C25.9194 18.5743 26.0269 18.3552 26.2419 18.1362C26.414 18.0048 26.6505 17.9391 26.9516 17.9391C27.2527 17.9391 27.5323 18.0048 27.7903 18.1362C27.9624 18.3114 28.0484 18.5305 28.0484 18.7933V25.1673C28.0484 25.5177 27.9624 25.7587 27.7903 25.8901C27.6183 26.0653 27.3387 26.1529 26.9516 26.1529Z" fill="url(#paint0_linear_35_116)" fill-opacity="0.6"/>
<defs>
<linearGradient id="paint0_linear_35_116" x1="27.5" y1="0" x2="27.5" y2="55" gradientUnits="userSpaceOnUse">
<stop stop-color="#AB3909" stop-opacity="0.79"/>
<stop offset="1" stop-color="#C24611"/>
</linearGradient>
</defs>
</svg>
